<svg width="99" height="155" viewBox="0 0 99 155" fill="none" xmlns="http://www.w3.org/2000/svg">
<rect width="99" height="155" fill="#D9D9D9"/>
<rect x="5" y="61" width="89" height="89" fill="white"/>
<rect x="5" y="5" width="89" height="51" fill="white"/>
<rect x="10" y="65" width="16" height="16" fill="#D5D1FF"/>
<rect x="10" y="86" width="16" height="16" fill="#D5D1FF"/>
<rect x="31" y="86" width="16" height="16" fill="#D5D1FF"/>
<rect x="52" y="86" width="16" height="16" fill="#D5D1FF"/>
<rect x="73" y="86" width="16" height="16" fill="#FFD4F0"/>
<rect x="73" y="107" width="16" height="16" fill="#FFD4F0"/>
<rect x="52" y="107" width="16" height="16" fill="#D5D1FF"/>
<rect x="31" y="107" width="16" height="16" fill="#D5D1FF"/>
<rect x="10" y="107" width="16" height="16" fill="#D5D1FF"/>
<rect x="10" y="128" width="16" height="16" fill="#F5F5F5"/>
<rect x="31" y="128" width="16" height="16" fill="#D5D1FF"/>
<rect x="52" y="128" width="16" height="16" fill="#6A8AF2"/>
<rect x="73" y="128" width="16" height="16" fill="#FFD4F0"/>
<rect x="31" y="65" width="16" height="16" fill="#D5D1FF"/>
<rect x="52" y="65" width="16" height="16" fill="#D5D1FF"/>
<rect x="73" y="65" width="16" height="16" fill="#FFD4F0"/>
</svg>
